<mxfile host="65bd71144e">
    <diagram id="R2lEEEUBdFMjLlhIrx00" name="Page-1">
        <mxGraphModel dx="747" dy="1733" grid="1" gridSize="10" guides="1" tooltips="1" connect="1" arrows="1" fold="1" page="1" pageScale="1" pageWidth="850" pageHeight="1100" background="none" math="0" shadow="0" extFonts="Permanent Marker^https://fonts.googleapis.com/css?family=Permanent+Marker">
            <root>
                <mxCell id="0"/>
                <mxCell id="1" parent="0"/>
                <mxCell id="30" value="" style="whiteSpace=wrap;html=1;fillColor=#FFFFFF;" parent="1" vertex="1">
                    <mxGeometry x="40" y="-1080" width="800" height="800" as="geometry"/>
                </mxCell>
                <mxCell id="12" value="" style="whiteSpace=wrap;html=1;fontSize=23;fillColor=#d0cee2;strokeColor=#56517e;" parent="1" vertex="1">
                    <mxGeometry x="260" y="-860" width="360" height="120" as="geometry"/>
                </mxCell>
                <mxCell id="bsDVykLvRhCMeooRDLJG-57" value="" style="rounded=0;whiteSpace=wrap;html=1;fillColor=#d0cee2;strokeColor=#56517e;" parent="1" vertex="1">
                    <mxGeometry x="80" y="-700" width="720" height="380" as="geometry"/>
                </mxCell>
                <mxCell id="4" value="" style="whiteSpace=wrap;html=1;fillColor=#dae8fc;strokeColor=#6c8ebf;" parent="1" vertex="1">
                    <mxGeometry x="145" y="-452.5" width="590" height="105" as="geometry"/>
                </mxCell>
                <mxCell id="bsDVykLvRhCMeooRDLJG-68" style="edgeStyle=none;curved=1;rounded=0;orthogonalLoop=1;jettySize=auto;html=1;exitX=1;exitY=0.5;exitDx=0;exitDy=0;entryX=0;entryY=0.5;entryDx=0;entryDy=0;fontSize=12;startSize=8;endSize=8;" parent="1" source="bsDVykLvRhCMeooRDLJG-1" target="bsDVykLvRhCMeooRDLJG-2" edge="1">
                    <mxGeometry relative="1" as="geometry"/>
                </mxCell>
                <mxCell id="bsDVykLvRhCMeooRDLJG-1" value="" style="rounded=0;whiteSpace=wrap;html=1;fillColor=#b0e3e6;strokeColor=#0e8088;" parent="1" vertex="1">
                    <mxGeometry x="160" y="-440" width="160" height="80" as="geometry"/>
                </mxCell>
                <mxCell id="bsDVykLvRhCMeooRDLJG-66" style="edgeStyle=none;curved=1;rounded=0;orthogonalLoop=1;jettySize=auto;html=1;exitX=0.5;exitY=0;exitDx=0;exitDy=0;fontSize=12;startSize=8;endSize=8;entryX=0.5;entryY=1;entryDx=0;entryDy=0;fillColor=#e51400;strokeColor=#B20000;" parent="1" source="bsDVykLvRhCMeooRDLJG-2" target="12" edge="1">
                    <mxGeometry relative="1" as="geometry">
                        <mxPoint x="440" y="-750" as="targetPoint"/>
                    </mxGeometry>
                </mxCell>
                <mxCell id="bsDVykLvRhCMeooRDLJG-2" value="" style="rounded=0;whiteSpace=wrap;html=1;fillColor=#b0e3e6;strokeColor=#0e8088;" parent="1" vertex="1">
                    <mxGeometry x="360" y="-440" width="160" height="80" as="geometry"/>
                </mxCell>
                <mxCell id="bsDVykLvRhCMeooRDLJG-56" style="edgeStyle=none;curved=1;rounded=0;orthogonalLoop=1;jettySize=auto;html=1;exitX=0.5;exitY=0;exitDx=0;exitDy=0;fontSize=12;startSize=8;endSize=8;fillColor=#e51400;strokeColor=#B20000;" parent="1" source="bsDVykLvRhCMeooRDLJG-3" target="12" edge="1">
                    <mxGeometry relative="1" as="geometry">
                        <Array as="points"/>
                        <mxPoint x="460" y="-730" as="targetPoint"/>
                    </mxGeometry>
                </mxCell>
                <mxCell id="bsDVykLvRhCMeooRDLJG-3" value="" style="rounded=0;whiteSpace=wrap;html=1;fillColor=#b0e3e6;strokeColor=#0e8088;" parent="1" vertex="1">
                    <mxGeometry x="560" y="-440" width="160" height="80" as="geometry"/>
                </mxCell>
                <mxCell id="bsDVykLvRhCMeooRDLJG-67" style="edgeStyle=none;curved=1;rounded=0;orthogonalLoop=1;jettySize=auto;html=1;exitX=0.5;exitY=0;exitDx=0;exitDy=0;fontSize=12;startSize=8;endSize=8;entryX=0.404;entryY=0.997;entryDx=0;entryDy=0;entryPerimeter=0;fillColor=#e51400;strokeColor=#B20000;" parent="1" source="bsDVykLvRhCMeooRDLJG-5" target="12" edge="1">
                    <mxGeometry relative="1" as="geometry">
                        <mxPoint x="400" y="-730" as="targetPoint"/>
                    </mxGeometry>
                </mxCell>
                <mxCell id="bsDVykLvRhCMeooRDLJG-5" value="" style="rounded=0;whiteSpace=wrap;html=1;fillColor=#b0e3e6;strokeColor=#0e8088;" parent="1" vertex="1">
                    <mxGeometry x="260" y="-620" width="160" height="80" as="geometry"/>
                </mxCell>
                <mxCell id="29" style="edgeStyle=none;html=1;exitX=1;exitY=0.5;exitDx=0;exitDy=0;entryX=0.25;entryY=0;entryDx=0;entryDy=0;fontColor=#000000;fillColor=#e51400;strokeColor=#B20000;" parent="1" source="bsDVykLvRhCMeooRDLJG-6" target="bsDVykLvRhCMeooRDLJG-5" edge="1">
                    <mxGeometry relative="1" as="geometry"/>
                </mxCell>
                <mxCell id="bsDVykLvRhCMeooRDLJG-6" value="" style="rounded=0;whiteSpace=wrap;html=1;fillColor=#b0e3e6;strokeColor=#0e8088;" parent="1" vertex="1">
                    <mxGeometry x="90" y="-680" width="160" height="80" as="geometry"/>
                </mxCell>
                <mxCell id="bsDVykLvRhCMeooRDLJG-62" style="edgeStyle=none;curved=1;rounded=0;orthogonalLoop=1;jettySize=auto;html=1;exitX=1;exitY=0.5;exitDx=0;exitDy=0;entryX=0.25;entryY=1;entryDx=0;entryDy=0;fontSize=12;startSize=8;endSize=8;fillColor=#e51400;strokeColor=#B20000;" parent="1" source="bsDVykLvRhCMeooRDLJG-8" target="bsDVykLvRhCMeooRDLJG-5" edge="1">
                    <mxGeometry relative="1" as="geometry"/>
                </mxCell>
                <mxCell id="bsDVykLvRhCMeooRDLJG-8" value="" style="rounded=0;whiteSpace=wrap;html=1;fillColor=#b0e3e6;strokeColor=#0e8088;" parent="1" vertex="1">
                    <mxGeometry x="90" y="-560" width="160" height="80" as="geometry"/>
                </mxCell>
                <mxCell id="bsDVykLvRhCMeooRDLJG-20" value="session service" style="text;strokeColor=none;fillColor=none;html=1;align=center;verticalAlign=middle;whiteSpace=wrap;rounded=0;fontSize=16;fontColor=#000000;" parent="1" vertex="1">
                    <mxGeometry x="310" y="-595" width="60" height="30" as="geometry"/>
                </mxCell>
                <mxCell id="bsDVykLvRhCMeooRDLJG-22" value="prisma&lt;div&gt;service&lt;/div&gt;" style="text;strokeColor=none;fillColor=none;html=1;align=center;verticalAlign=middle;whiteSpace=wrap;rounded=0;fontSize=16;fontColor=#000000;" parent="1" vertex="1">
                    <mxGeometry x="140" y="-655" width="60" height="30" as="geometry"/>
                </mxCell>
                <mxCell id="bsDVykLvRhCMeooRDLJG-23" value="jwt&lt;div&gt;auth&lt;/div&gt;&lt;div&gt;service&lt;/div&gt;" style="text;strokeColor=none;fillColor=none;html=1;align=center;verticalAlign=middle;whiteSpace=wrap;rounded=0;fontSize=16;fontColor=#000000;" parent="1" vertex="1">
                    <mxGeometry x="410" y="-415" width="60" height="30" as="geometry"/>
                </mxCell>
                <mxCell id="bsDVykLvRhCMeooRDLJG-24" value="jwt&lt;div&gt;auth&lt;/div&gt;&lt;div&gt;settings&lt;/div&gt;" style="text;html=1;align=center;verticalAlign=middle;whiteSpace=wrap;rounded=0;fontSize=16;fontColor=#000000;" parent="1" vertex="1">
                    <mxGeometry x="210" y="-415" width="60" height="30" as="geometry"/>
                </mxCell>
                <mxCell id="bsDVykLvRhCMeooRDLJG-25" value="mutex&lt;div&gt;manager&lt;/div&gt;" style="text;strokeColor=none;fillColor=none;html=1;align=center;verticalAlign=middle;whiteSpace=wrap;rounded=0;fontSize=16;fontColor=#000000;" parent="1" vertex="1">
                    <mxGeometry x="140" y="-535" width="60" height="30" as="geometry"/>
                </mxCell>
                <mxCell id="bsDVykLvRhCMeooRDLJG-26" value="cookie&lt;div&gt;settings&lt;/div&gt;" style="text;strokeColor=none;fillColor=none;html=1;align=center;verticalAlign=middle;whiteSpace=wrap;rounded=0;fontSize=16;fontColor=#000000;" parent="1" vertex="1">
                    <mxGeometry x="610" y="-415" width="60" height="30" as="geometry"/>
                </mxCell>
                <mxCell id="bsDVykLvRhCMeooRDLJG-37" style="edgeStyle=none;curved=1;rounded=0;orthogonalLoop=1;jettySize=auto;html=1;exitX=0.5;exitY=1;exitDx=0;exitDy=0;fontSize=12;startSize=8;endSize=8;entryX=0.873;entryY=-0.024;entryDx=0;entryDy=0;entryPerimeter=0;fillColor=#e51400;strokeColor=#B20000;" parent="1" source="dbuw_rw_clf15lGVqVSC-2" target="4" edge="1">
                    <mxGeometry relative="1" as="geometry">
                        <mxPoint x="735" y="-505" as="sourcePoint"/>
                        <mxPoint x="600" y="-450" as="targetPoint"/>
                    </mxGeometry>
                </mxCell>
                <mxCell id="bsDVykLvRhCMeooRDLJG-38" value="" style="rounded=0;whiteSpace=wrap;html=1;fillColor=#b0e3e6;strokeColor=#0e8088;" parent="1" vertex="1">
                    <mxGeometry x="390" y="-840" width="100" height="80" as="geometry"/>
                </mxCell>
                <mxCell id="bsDVykLvRhCMeooRDLJG-39" value="Jwt&lt;div&gt;Guard&lt;/div&gt;" style="text;strokeColor=none;fillColor=none;html=1;align=center;verticalAlign=middle;whiteSpace=wrap;rounded=0;fontSize=16;fontColor=#000000;" parent="1" vertex="1">
                    <mxGeometry x="410" y="-815" width="60" height="30" as="geometry"/>
                </mxCell>
                <mxCell id="bsDVykLvRhCMeooRDLJG-41" style="edgeStyle=none;curved=1;rounded=0;orthogonalLoop=1;jettySize=auto;html=1;exitX=0.5;exitY=0;exitDx=0;exitDy=0;fontSize=12;startSize=8;endSize=8;" parent="1" source="bsDVykLvRhCMeooRDLJG-2" target="bsDVykLvRhCMeooRDLJG-2" edge="1">
                    <mxGeometry relative="1" as="geometry"/>
                </mxCell>
                <mxCell id="bsDVykLvRhCMeooRDLJG-58" value="AuthPackModule" style="text;strokeColor=none;align=center;fillColor=none;html=1;verticalAlign=middle;whiteSpace=wrap;rounded=0;fontSize=16;fontColor=#000000;" parent="1" vertex="1">
                    <mxGeometry x="709" y="-840" width="60" height="30" as="geometry"/>
                </mxCell>
                <mxCell id="bsDVykLvRhCMeooRDLJG-60" style="edgeStyle=none;curved=1;rounded=0;orthogonalLoop=1;jettySize=auto;html=1;exitX=0.5;exitY=1;exitDx=0;exitDy=0;entryX=0.75;entryY=0;entryDx=0;entryDy=0;fontSize=12;startSize=8;endSize=8;fillColor=#e51400;strokeColor=#B20000;" parent="1" source="bsDVykLvRhCMeooRDLJG-58" target="bsDVykLvRhCMeooRDLJG-57" edge="1">
                    <mxGeometry relative="1" as="geometry"/>
                </mxCell>
                <mxCell id="bsDVykLvRhCMeooRDLJG-70" value="" style="shape=note;whiteSpace=wrap;html=1;backgroundOutline=1;fontColor=#000000;darkOpacity=0.05;fillColor=#FFF9B2;strokeColor=none;fillStyle=solid;direction=west;gradientDirection=north;gradientColor=#FFF2A1;shadow=1;size=20;pointerEvents=1;" parent="1" vertex="1">
                    <mxGeometry x="590" y="-695" width="200" height="155" as="geometry"/>
                </mxCell>
                <mxCell id="bsDVykLvRhCMeooRDLJG-71" value="session service еще используется в своем модуле, откуда и экспортируется!" style="text;strokeColor=none;fillColor=none;html=1;align=center;verticalAlign=middle;whiteSpace=wrap;rounded=0;fontSize=16;labelBackgroundColor=none;labelBorderColor=none;spacingTop=0;fontColor=#0D0D0D;" parent="1" vertex="1">
                    <mxGeometry x="605" y="-645" width="170" height="30" as="geometry"/>
                </mxCell>
                <mxCell id="bsDVykLvRhCMeooRDLJG-74" value="Аутентифицирует и авторизует сессии и аккаунты" style="text;strokeColor=none;fillColor=none;html=1;align=center;verticalAlign=middle;whiteSpace=wrap;rounded=0;fontSize=16;fontColor=#000000;" parent="1" vertex="1">
                    <mxGeometry x="51" y="-1010" width="210" height="30" as="geometry"/>
                </mxCell>
                <mxCell id="dbuw_rw_clf15lGVqVSC-2" value="Ядро. Менять только переменные" style="text;strokeColor=none;fillColor=none;html=1;align=center;verticalAlign=middle;whiteSpace=wrap;rounded=0;fontSize=16;fontColor=#000000;" parent="1" vertex="1">
                    <mxGeometry x="630" y="-525" width="160" height="30" as="geometry"/>
                </mxCell>
                <mxCell id="6" value="" style="whiteSpace=wrap;html=1;" parent="1" vertex="1">
                    <mxGeometry x="350" y="-1070" width="180" height="130" as="geometry"/>
                </mxCell>
                <mxCell id="10" value="Modules" style="text;strokeColor=#56517e;align=center;fillColor=#d0cee2;html=1;verticalAlign=middle;whiteSpace=wrap;rounded=0;fontSize=23;labelBorderColor=none;labelBackgroundColor=none;fontColor=#000000;" parent="1" vertex="1">
                    <mxGeometry x="350" y="-1070" width="180" height="130" as="geometry"/>
                </mxCell>
                <mxCell id="11" value="" style="edgeStyle=none;orthogonalLoop=1;jettySize=auto;html=1;fontSize=23;entryX=0.5;entryY=1;entryDx=0;entryDy=0;exitX=0.5;exitY=0;exitDx=0;exitDy=0;fillColor=#e51400;strokeColor=#B20000;" parent="1" source="12" target="10" edge="1">
                    <mxGeometry width="80" relative="1" as="geometry">
                        <mxPoint x="480" y="-890" as="sourcePoint"/>
                        <mxPoint x="560" y="-880" as="targetPoint"/>
                        <Array as="points"/>
                    </mxGeometry>
                </mxCell>
                <mxCell id="13" value="" style="whiteSpace=wrap;html=1;fontSize=23;fillColor=#b0e3e6;strokeColor=#0e8088;" parent="1" vertex="1">
                    <mxGeometry x="500" y="-839" width="100" height="80" as="geometry"/>
                </mxCell>
                <mxCell id="14" value="" style="whiteSpace=wrap;html=1;fontSize=23;fillColor=#b0e3e6;strokeColor=#0e8088;" parent="1" vertex="1">
                    <mxGeometry x="280" y="-840" width="100" height="80" as="geometry"/>
                </mxCell>
                <mxCell id="20" value="" style="edgeStyle=none;orthogonalLoop=1;jettySize=auto;html=1;fontSize=23;entryX=0;entryY=0;entryDx=0;entryDy=0;fillColor=#e51400;strokeColor=#B20000;" parent="1" target="12" edge="1">
                    <mxGeometry width="80" relative="1" as="geometry">
                        <mxPoint x="200" y="-970" as="sourcePoint"/>
                        <mxPoint x="530" y="-800" as="targetPoint"/>
                        <Array as="points"/>
                    </mxGeometry>
                </mxCell>
                <mxCell id="21" value="Jwt&lt;br style=&quot;font-size: 16px;&quot;&gt;Ahthorized" style="text;strokeColor=none;align=center;fillColor=none;html=1;verticalAlign=middle;whiteSpace=wrap;rounded=0;fontSize=16;fontColor=#000000;" parent="1" vertex="1">
                    <mxGeometry x="300" y="-815" width="60" height="30" as="geometry"/>
                </mxCell>
                <mxCell id="22" value="Jwt&lt;br&gt;Check" style="text;strokeColor=none;align=center;fillColor=none;html=1;verticalAlign=middle;whiteSpace=wrap;rounded=0;fontSize=16;fontColor=#000000;" parent="1" vertex="1">
                    <mxGeometry x="520" y="-815" width="60" height="30" as="geometry"/>
                </mxCell>
                <mxCell id="27" value="Jwt&lt;br&gt;Guards" style="text;strokeColor=none;align=center;fillColor=none;html=1;verticalAlign=middle;whiteSpace=wrap;rounded=0;fontSize=16;fontColor=#000000;" parent="1" vertex="1">
                    <mxGeometry x="720" y="-1025" width="70" height="60" as="geometry"/>
                </mxCell>
                <mxCell id="28" value="" style="edgeStyle=none;orthogonalLoop=1;jettySize=auto;html=1;fontSize=16;exitX=0;exitY=1;exitDx=0;exitDy=0;entryX=1;entryY=0;entryDx=0;entryDy=0;fillColor=#e51400;strokeColor=#B20000;" parent="1" source="27" target="12" edge="1">
                    <mxGeometry width="80" relative="1" as="geometry">
                        <mxPoint x="630" y="-880" as="sourcePoint"/>
                        <mxPoint x="620" y="-920" as="targetPoint"/>
                        <Array as="points"/>
                    </mxGeometry>
                </mxCell>
            </root>
        </mxGraphModel>
    </diagram>
    <diagram id="p3oJ3imwA-eH_vvO8SaG" name="Page-2">
        <mxGraphModel dx="560" dy="475" grid="1" gridSize="10" guides="1" tooltips="1" connect="1" arrows="1" fold="1" page="1" pageScale="1" pageWidth="850" pageHeight="1100" math="0" shadow="0">
            <root>
                <mxCell id="0"/>
                <mxCell id="1" parent="0"/>
            </root>
        </mxGraphModel>
    </diagram>
</mxfile>